<svg viewBox="0 0 400 400" xmlns="http://www.w3.org/2000/svg">
  <rect width="400" height="400" fill="#fdf8ec"/>
  <circle cx="200" cy="200" r="150" fill="#f5da96" opacity="0.6"/>
  <g transform="translate(200,215) scale(1.05)">
    <path d="M-60 -10 c-30 -20 -30 20 0 20z" fill="#eaa834" opacity="0.9"/>
    <path d="M60 -10 c30 -20 30 20 0 20z" fill="#eaa834" opacity="0.9"/>
    <ellipse cx="0" cy="0" rx="34" ry="24" fill="#2b2118"/>
    <path d="M-34 -10 h68 v8 h-68z M-30 4 h60 v8 h-60z" fill="#d9971f"/>
    <path d="M0 20 c-10 40 -10 70 0 90 c10 -20 10 -50 0 -90z" fill="#3a3128"/>
    <path d="M-6 30 h12 v50 h-12z" fill="#d9971f" opacity="0.7"/>
    <circle cx="-16" cy="-16" r="6" fill="#1c1610"/>
    <circle cx="16" cy="-16" r="6" fill="#1c1610"/>
    <path d="M-18 -30 l-14 -16 M18 -30 l14 -16" stroke="#1c1610" stroke-width="4" fill="none" stroke-linecap="round"/>
  </g>
  <g transform="translate(200,115)">
    <path d="M-24 0 l8 -22 l8 14 l8 -22 l8 22 l8 -14 l8 22z" fill="#d9971f"/>
    <circle cx="-16" cy="-22" r="5" fill="#b97817"/>
    <circle cx="0" cy="-30" r="6" fill="#b97817"/>
    <circle cx="16" cy="-22" r="5" fill="#b97817"/>
  </g>
</svg>
